<?xml version="1.0"?>
<svg width="5547" height="6222.5" xmlns="http://www.w3.org/2000/svg" xmlns:svg="http://www.w3.org/2000/svg" clip-rule="evenodd" fill-rule="evenodd" version="1.0" xml:space="preserve">
 <defs>
  <style type="text/css">.fil0 {fill:white}</style>
 </defs>
 <g class="layer">
  <title>Layer 1</title>
  <g id="svg_1">
   <path class="fil0" d="m2543.45,3565l-7.91,32c-9.89,-4 -17.81,-6 -21.76,-8l-162.23,-73c-4.95,-4 -10.88,-7 -18.79,-11l-95.95,-55l-111.78,-64m-681.55,33l0,0c0,0 -24.73,-22 -62.32,24c0,0 -27.7,37 -28.69,82c0,0 -1.98,28 9.89,41c24.73,30 56.38,6 72.21,-22m-205.75,-529c-2.97,-3 -9.89,-13 0.99,-40c0,0 0,-7 -18.79,1c0,0 -13.85,2 -4.95,-6c0,0 24.73,-28 32.64,-20c0,0 29.68,-31 37.59,-45l231.47,36c0,0 0.99,0 0.99,0l0,0c1.98,0 2.97,1 3.96,-1l0,0c1.98,-2 0.99,-3 0,-4c0,0 0,-1 0,-1l0,0l0,0c-0.99,-5 -3.96,-17 0,-27c2.97,-6 7.91,-12 17.81,-16c0.99,0 1.98,-1 2.97,-1c4.95,3 9.89,9 9.89,20c0.99,18 -9.89,27 -20.77,41l-96.94,124c0,0 -16.82,24 -33.63,28c0,0 -28.69,-1 -27.7,21m20.77,209c0,0 -6.92,-7 -11.87,-19l0,0l-165.2,84c-4.95,8 -7.91,16 -9.89,22l-15.83,40l-21.76,-1l0,-2c-0.99,-17 -9.89,-37 -22.75,-48l0,0l0,0c-14.84,-12 -30.66,-24 -46.49,-35c-10.88,-7 -24.73,-10 -37.59,-7l-28.69,-17c-13.85,-9 -32.64,-7 -44.51,3l-0.99,0l-38.58,36c-3.96,4 -7.91,9 -9.89,14l-78.15,31c-1.98,1 -2.97,1 -4.95,2l-105.84,-130c0,0 -20.77,-29 15.83,-43c0,0 99.91,-36 183.99,-19c0,0 215.64,51 299.73,105c0,0 -20.77,26 -34.62,49l162.23,-123c1.98,-10 5.94,-21 13.85,-32l50.45,39l-468.88,-360c-12.86,5 -24.73,8 -37.59,1c-39.57,-30 -79.14,-60 -119.69,-90c0,0 -95.95,-87 -133.54,-147c-3.96,-6 -7.91,-13 -6.92,-21c0.99,-6 8.9,-13 12.86,-17c7.91,-8 21.76,-21 35.61,-26l0,0c6.92,3 14.84,6 23.74,8l299.73,5c6.92,2 12.86,4 19.78,6c24.73,7 49.46,13 74.19,19c4.95,1 9.89,2 14.84,4c0,1 -0.99,3 -0.99,4c-0.99,10 5.94,17 14.84,21c2.97,1 5.94,3 8.9,4l105.84,36l0.99,0c14.84,3 27.7,-5 33.63,-19c0,0 0,-1 0,-1l34.62,11l0.99,0c25.72,5 52.43,5 78.15,-1c10.88,-2 22.75,-6 32.64,-10c19.78,-7 40.56,-27 51.44,-45l7.91,-12l-10.88,-10c-11.87,-11 -27.7,-20 -41.55,-27c-17.81,-10 -37.59,-20 -56.38,-28c-11.87,-6 -27.7,-11 -42.54,-16l216.63,-12l37.59,-99l12.86,15l11.87,-20c46.49,-79 92.98,-159 139.48,-238l0.99,-2l0.99,-3c1.98,-8 6.92,-11 14.84,-12c5.94,-1 12.86,0 18.79,1l12.86,3l5.94,-13c3.96,-8 16.82,-15 24.73,-17l4.95,-1l81.11,139l17.81,10c-120.68,92 -230.48,199 -321.49,320l0,1l0,1c-4.95,7 -8.9,15 -12.86,23c-10.88,20 -21.76,41 -30.66,63c-15.83,33 -29.68,68 -42.54,102l-201.8,-26c-17.81,-3 -21.76,-10 -19.78,-20c-84.08,40 -173.11,73 -264.11,103l0,0l155.3,126m0.99,1l0,0l242.35,197l-8.9,52l-28.69,18l0,0c-18.79,15 -36.6,34 -50.45,51l0,0m1158.35,230l-280.93,-127c-6.92,5 -15.83,9 -24.73,12m2790.51,-189c25.72,-52 174.1,-115 91.01,-181c44.51,61 -115.74,103 -91.01,181zm-4218.91,-426c-57.37,-23 -104.85,-63 -148.38,-108c-32.64,-5 -60.34,-24 -78.15,-60c-8.9,-32 -14.84,-65 7.91,-96c13.85,-14 28.69,-24 46.49,-29c10.88,25 32.64,58 69.24,77c-8.9,6 -23.74,16 -36.6,29c-7.91,8 -10.88,11 -8.9,23c0.99,5 2.97,11 6.92,17c34.62,50 83.09,104 140.47,146l0.99,1zm466.9,66c-1.98,-4 -2.97,-12 1.98,-23c0,0 8.9,-19 22.75,-15l223.56,29c-8.9,4 -14.84,11 -16.82,18c-4.95,11 -2.97,22 -0.99,29l-230.48,-36l0,-2zm-136.51,994c0,0 42.54,133 71.22,174l85.07,35l54.41,5c0,0 54.41,3 67.27,-56c0,0 16.82,-36 -11.87,-72c0,0 -17.81,-19 -68.25,-14l-9.89,-7c4.95,0 10.88,-2 16.82,-11c0,0 28.69,2 28.69,-21c0,0 2.97,-20 -14.84,-23c0,0 -1.98,-24 -22.75,-22c0,0 33.63,-43 9.89,-70c0,0 -14.84,-8 -24.73,5l-77.16,-26l-1.98,-82c0,0 -2.97,-22 12.86,-47c0,0 19.78,-36 23.74,-64c-0.99,68 14.84,99 14.84,99c3.96,11 -3.96,20 -3.96,20l-1.98,2c-13.85,-3 -15.83,14 -15.83,14c0,16 10.88,17 10.88,17c2.97,6 6.92,11 6.92,11c9.89,11 14.84,7 14.84,7l11.87,-4c18.79,30 68.25,57 68.25,57c4.95,12 20.77,10 20.77,10c18.79,-1 21.76,-26 21.76,-26c5.94,-7 8.9,-4 8.9,-4l0,0c0.99,22 1.98,44 3.96,66c0,11 3.96,19 12.86,25c62.32,39 129.58,66 197.84,86c7.91,1 14.84,2 22.75,0c3.96,-24 7.91,-47 11.87,-71c0,0 2.97,-24 -6.92,-43c-9.89,-19 -30.66,-59 -30.66,-93c0,-33 124.64,-628 453.05,-902c0,0 57.37,-72 163.22,-142l-50.45,233c-4.95,32 -5.94,66 -5.94,66l3.96,184c-19.78,0 -15.83,31 -15.83,31c-5.94,19 1.98,38 1.98,38c-1.98,3 -1.98,11 -0.99,17l-2.97,6l2.97,1c1.98,28 -26.71,29 -26.71,29c-49.46,-3 -44.51,52 -44.51,52l0,0l-32.64,-19c0,0 -13.85,-9 -28.69,2l-239.38,222c0,0 -15.83,22 -31.65,51l-27.7,80c0,0 -12.86,29 -3.96,57c0,0 8.9,39 6.92,65c0,0 -34.62,66 -19.78,87c0,0 0.99,3 -14.84,2l-43.52,-1l-7.91,46l-0.99,7l-6.92,2c-9.89,3 -18.79,2 -28.69,0l-0.99,0l-0.99,0c-13.85,-4 -27.7,-8 -41.55,-13l7.91,63c0,0 2.97,17 7.91,22c15.83,24 48.47,66 80.12,68l214.65,24l102.88,40c0,0 11.87,5 26.71,6l417.44,58c0,0 185.97,109 327.42,131c0,0 160.25,16 226.53,3l0,0c121.67,636 541.09,1037 1168.24,1048c692.44,0 1307.71,-638 1332.44,-1407c14.84,-558 -207.73,-1021 -630.12,-1261c20.77,12 97.93,61 99.91,111l0,18c0,0 -0.99,11 3.96,18l9.89,11c0,0 5.94,5 5.94,-4c0,0 1.98,-51 -6.92,-64c-23.74,-33 -73.2,-66 -115.74,-90c-10.88,-6 -20.77,-12 -31.65,-17c-223.56,-118 -450.08,-163 -665.73,-143c133.54,-80 296.76,-105 443.16,-30c43.52,22 75.18,44 63.31,102c19.78,-19 21.76,-60 -2.97,-87c-69.24,-72 -281.92,-149 -370.95,-163c-278.95,-35 -522.29,32 -717.17,230l0.99,5c12.86,51 24.73,101 36.6,152c-1.98,2 -4.95,3 -6.92,5c-11.87,-52 -24.73,-104 -37.59,-155c-51.44,5 -101.89,17 -136.51,37l26.71,73c2.97,6 5.94,15 3.96,21l0.99,0l1.98,3c9.89,14 27.7,43 21.76,61l4.95,0l1.98,5c3.96,7 8.9,19 13.85,31c-1.98,2 -3.96,4 -6.92,6c-6.92,-17 -13.85,-33 -13.85,-33c-9.89,1 -8.9,-10 -8.9,-10c6.92,-16 -20.77,-55 -20.77,-55c-9.89,0 -5.94,-9 -5.94,-9c6.92,-3 -0.99,-17 -0.99,-17l-208.72,-562c-10.88,-2 -21.76,-7 -28.69,-15l-3.96,6l-1.98,-14c-21.76,6 -38.58,18 -53.42,36l-6.92,8l-9.89,-5c-1.98,-1 -2.97,-2 -3.96,-3c-19.78,10 -36.6,27 -46.49,47c-4.95,10 -8.9,23 -6.92,35l4.95,13c0.99,2 2.97,4 4.95,5l4.95,4l0,6c0.99,10 3.96,18 9.89,26l3.96,5l-0.99,6l-0.99,6l137.5,369l-27.7,-74l-422.39,-233l-65.29,40l150.36,-193l121.67,-47c0,-7 0,-14 0,-21c-19.78,-23 -28.69,-61 -5.94,-85c5.94,-6 11.87,-13 17.81,-19l17.81,-20l0,0c4.95,-6 9.89,-11 15.83,-15c1.98,-13 8.9,-23 21.76,-28l0,0l0,0c3.96,-1 7.91,-2 10.88,-1c4.95,-4 9.89,-7 16.82,-8l1.98,0l1.98,0c14.84,1 27.7,8 37.59,18c9.89,-2 19.78,-2 29.68,-1c0.99,-2 1.98,-3 2.97,-5c-2.97,-9 -3.96,-15 -0.99,-24l0,-1l0,-1c0,-1 0.99,-1 0.99,-2l-142.44,-385c-47.48,-80 -199.82,-14 -169.15,78l75.18,203c-8.9,3 -18.79,7 -27.7,10c-18.79,7 -18.79,11 -18.79,11c-10.88,20 -37.59,27 -37.59,27l-61.33,23l-40.56,-118c-8.9,-29 -48.47,-42 -48.47,-42c-349.19,-44 -673.64,-27 -962.49,77c-13.85,6 0,18 0,18c96.94,115 207.73,216 326.43,311c3.96,-3 7.91,-5 11.87,-7c55.39,-35 112.77,-68 172.12,-97c22.75,-11 46.49,-23 70.23,-32l0.99,-1l1.98,0c28.69,0 56.38,1 85.07,2c117.71,-37 245.32,-54 376.88,-63c20.77,1 11.87,-29 11.87,-29l-2.97,-8c11.87,0 16.82,25 16.82,25c0,0 0.99,24 5.94,49c4.95,25 22.75,18 22.75,18l65.29,-21c14.84,-8 22.75,-33 22.75,-33c0,0 16.82,-59 24.73,-77l6.92,18l0,0l-21.76,72c0,0 -7.91,23 -31.65,36l-56.38,20c0,0 -35.61,10 -43.52,-23c0,0 -4.95,-37 -2.97,-55c0,0 -0.99,58 -22.75,51l-2.97,16l-106.83,14c0,0 60.34,6 77.16,47c-96.94,-24 -239.38,-47 -426.34,-48c0,0 -410.52,161 -689.47,535c0,0 -133.54,218 -195.86,611l0,0c-50.45,22 -107.82,108 -107.82,108c-35.61,50 -57.37,115 -67.27,152l0,0c0,0 -6.92,-89 -80.12,-48c0,0 -55.39,45 -69.24,148c0,0 -4.95,38 -0.99,57l-1.98,32c-3.96,2 -11.87,6 -11.87,14c0,0 -19.78,-21 -34.62,7c0,0 22.75,-8 19.78,20c-7.91,33 -48.47,36 -76.17,25c-13.85,-5 -26.71,-15 -37.59,-33l-20.77,24c0,0 -7.91,7 -13.85,2c-5.94,-5 -60.34,-34 -60.34,-34c0,0 -22.75,-16 -8.9,-31c0,0 2.97,-50 -30.66,-67c-18.79,-10 -37.59,-9 -60.34,9l-51.44,-107c-13.85,-28 -27.7,-56 -41.55,-84c-8.9,-40 -17.81,-81 -26.71,-121l-37.59,-110c-10.88,-6 -21.76,-12 -31.65,-18l0,0l0,0c-6.92,-4 -13.85,-11 -18.79,-18c-10.88,-16 -12.86,-35 -4.95,-52l0.99,-1l0.99,-1c0,0 0,-1 0.99,-1c-4.95,-9 -10.88,-20 -10.88,-31l-47.48,-30l-1.98,-2c-9.89,-11 -10.88,-28 -1.98,-40l0,0c8.9,-12 24.73,-22 39.57,-14l4.95,2l-43.52,-126c-1.98,-11 -2.97,-22 -4.95,-33c-51.44,-146 -240.37,-88 -278.95,57c-0.99,7 -1.98,14 -1.98,21c1.98,9 3.96,19 5.94,28c31.65,183 88.04,363 134.53,544c9.89,94 60.34,132 140.47,127c34.62,55 68.25,105 102.88,114c6.92,8 13.85,16 19.78,24l-32.64,17c0,0 -88.04,46 -125.63,89l-147.39,151c0,0 -46.49,43 -55.39,72c-3.96,-73 -19.78,-207 -6.92,-271c46.49,-80 100.9,-146 165.2,-193c-6.92,-3 -13.85,-7 -20.77,-12c-9.89,-7 -18.79,-16 -25.72,-26c-293.79,270 -549,1071 -198.83,1370c97.93,84 236.42,111 404.58,41c259.17,-107 431.29,-448 500.53,-710c0.99,-3 0.99,-6 1.98,-9c-58.36,-10 -106.83,-35 -147.39,-85l0,0l0,0c-39.57,-53 -78.15,-106 -117.71,-159c-5.94,-6 -12.86,-12 -18.79,-19l-0.99,-1l-0.99,-2l-28.69,-44c-34.62,23 -67.27,48 -99.91,74c-11.87,9 -22.75,18 -34.62,27c-36.6,218 -121.67,411 -244.33,583l27.7,-177c11.87,-39 35.61,-77 35.61,-77c-0.99,-17 -9.89,-4 -9.89,-4c-22.75,24 -39.57,94 -39.57,94l-27.7,157c-0.99,18 -5.94,33 -5.94,34c-1.98,2 -3.96,5 -4.95,7c-58.36,65 -133.54,98 -197.84,73c-100.9,-62 -118.7,-226 -92.98,-408c20.77,-141 56.38,-276 115.74,-403c7.91,-18 15.83,-35 23.74,-52l0,0c15.83,-6 21.76,40 21.76,40l9.89,165c-0.99,3 -1.98,6 -2.97,9l0,-1c-0.99,-1 -1.98,-2 -2.97,-3c-4.95,-4 -5.94,-19 -9.89,-32c-3.96,-13 -16.82,-24 -25.72,-22c-8.9,2 -8.9,13 -12.86,17c-4.95,4 -3.96,14 -7.91,26c-1.98,5 -1.98,8 -1.98,11c1.98,-1 4.95,-2 6.92,-2c3.96,0 7.91,2 9.89,5l20.77,9c2.97,-3 7.91,-4 11.87,-4c1.98,0 5.94,0 7.91,1l0,-1c-0.99,2 -0.99,4 -1.98,6l0,0c0,0 -9.89,-2 -17.81,5l-25.72,-11c-1.98,-3 -3.96,-4 -6.92,-4c-6.92,0 -13.85,8 -14.84,18c-1.98,10 1.98,18 8.9,18c2.97,0 4.95,-1 7.91,-3l0,0l23.74,6c0,0 0.99,15 13.85,10c0,2 -0.99,4 -0.99,6c-8.9,2 -14.84,-3 -16.82,-12l-17.81,-4c-2.97,2 -5.94,3 -8.9,3c-5.94,0 -9.89,-4 -11.87,-9c-6.92,9 -8.9,32 -8.9,32c-9.89,5 -6.92,21 -6.92,21c-4.95,11 11.87,9 11.87,9c-0.99,3 7.91,8 7.91,8c-26.71,122 -32.64,229 -17.81,322c10.88,66 32.64,167 143.43,160c-68.25,-8 -105.84,-66 -119.69,-160c-8.9,-115 -1.98,-224 22.75,-326c-9.89,1 -19.78,3 -29.68,4l43.52,-7c-1.98,12 -3.96,25 -5.94,38c-13.85,132 15.83,204 109.8,191l39.57,8l-67.27,77c-50.45,24 -93.97,-22 -109.8,-43c0.99,19 1.98,38 2.97,57c7.91,53 25.72,112 69.24,139c-11.87,-67 38.58,-130 38.58,-130l82.1,-98l21.76,4c14.84,-1 17.81,-17 13.85,-33c-1.98,-19 39.57,-42 50.45,-77c9.89,-25 27.7,-32 41.55,-49c9.89,-14 18.79,-30 12.86,-44c-10.88,-19 -43.52,-5 -62.32,-13c0.99,-2 1.98,-5 2.97,-8c-11.87,14 -23.74,27 -35.61,41l-0.99,1l-0.99,1c-1.98,2 -1.98,4 -0.99,6l0.99,1l0,1c3.96,19 -9.89,34 -27.7,37l-3.96,1l-3.96,-2c-5.94,-4 -13.85,-7 -19.78,-9c-17.81,-5 -16.82,-24 -9.89,-37c1.98,-4 5.94,-9 9.89,-12c-0.99,-7 0.99,-15 5.94,-20l0.99,-1l1.98,-1c10.88,-6 20.77,-4 27.7,2c0,-1 0.99,-2 0.99,-2l0,-1l0.99,-1c8.9,-14 19.78,-27 29.68,-40c12.86,-15 26.71,-30 40.56,-45c2.97,-3 5.94,-7 9.89,-10c11.87,-50 18.79,-107 12.86,-154c-12.86,10 -25.72,20 -37.59,31l-0.99,0l-0.99,0c-21.76,16 -44.51,32 -65.29,48c-17.81,13 -37.59,28 -54.41,42c-16.82,15 -42.54,29 -65.29,29l-0.99,0l-0.99,0c-16.82,-1 -24.73,-16 -26.71,-31l17.81,-15c-0.99,3 -0.99,6 -0.99,9c0,10 2.97,20 11.87,21c0,0 26.71,0 54.41,-25c27.7,-25 121.67,-91 121.67,-91c0,0 82.1,-70 124.64,-89c40.56,-19 125.63,-48 133.54,-50c13.85,17 26.71,35 40.56,52l-0.99,-2c-16.82,15 -134.53,121 -169.15,150c0,0 -127.61,119 -163.22,176c0,0 -5.94,17 -12.86,19c0,0 -5.94,-21 -21.76,-12c0,0 -7.91,8 0,18c0,0 -9.89,2 -14.84,13c0,0 -9.89,16 2.97,20c12.86,3 22.75,10 22.75,10c0,0 22.75,-3 17.81,-23c0,0 -5.94,-12 3.96,-20c0,0 60.34,-70 90.02,-100c28.69,-30 178.05,-157 269.06,-215c-3.96,-5 -6.92,-10 -10.88,-15c16.82,23 33.63,47 49.46,72c6.92,6 12.86,13 19.78,19c39.57,53 79.14,107 118.7,160c51.44,63 113.76,80 179.04,84l698.37,94c-0.99,14 -1.98,42 12.86,49c0,0 -2.97,6 0,8c0,0 -1.98,4 1.98,7c0,0 -1.98,4 1.98,12l52.43,109c0,0 3.96,5 8.9,0l35.61,-22l73.2,144l-21.76,14c0,0 -7.91,6 -4.95,12c0,0 0.99,10 13.85,4l22.75,-11l183.99,344c0.99,2 1.98,7 -2.97,7c-13.85,0 -27.7,0 -36.6,5c0,0 -14.84,9 -1.98,18c0,0 10.88,7 41.55,8c0,0 42.54,3 75.18,-9c8.9,-3 33.63,-14 15.83,-25c-10.88,-7 -32.64,-6 -38.58,-4l-178.05,-367l88.04,-48c0,0 18.79,-1 13.85,-17c0,0 -2.97,-9 -13.85,-6c0,0 -3.96,2 -7.91,9l-90.02,41l-109.8,-199c0,0 -18.79,-30 5.94,-38l-1.98,-18l-2.97,-9l194.87,26c133.54,-5 239.38,-52 328.41,-126c-17.81,-9 -35.61,-18 -52.43,-28l-242.35,-34c-14.84,5 -30.66,8 -48.47,9c-327.42,-37 -655.84,-74 -983.26,-110c-54.41,-11 -98.92,-37 -132.55,-81c-27.7,-42 -55.39,-83 -83.09,-125c-7.91,-13 -16.82,-26 -24.73,-39l-41.55,-63c14.84,-3 28.69,-6 42.54,-8c0,0 85.07,-45 188.94,-22l6.92,94l10.88,4zm174.1,54l-7.91,-5l-6.92,74l-62.32,-108c0,0 0,-7 -0.99,-11c0,0 9.89,-12 9.89,-33l51.44,51c0,0 -2.97,26 13.85,30c0,0 0.99,1 1.98,3l0.99,-1zm30.66,-353l13.85,-16c0,0 36.6,36 77.16,-18l0,1c3.96,-101 13.85,-195 26.71,-281l0,0c0,0 -4.95,3 -12.86,8l0.99,24c-17.81,10 -48.47,44 -48.47,44l-4.95,-18c-15.83,18 -31.65,41 -47.48,70l5.94,9c-11.87,16 -29.68,74 -29.68,74l-7.91,-7c-6.92,23 -13.85,52 -16.82,83l12.86,-2c0,0 -5.94,50 0,73l-14.84,10c3.96,35 16.82,78 53.42,95c0,0 41.55,21 82.1,-10l0,0c0,-4 0,-7 0,-11c0,1 -1.98,2 -9.89,2l-2.97,-19c0,0 9.89,-1 11.87,-7l0,0c0,-36 0,-72 0.99,-106l0,1c-23.74,31 -66.28,34 -89.03,1l-0.99,0zm-1067.34,249c0.99,-2 1.98,-3 2.97,-5c-0.99,2 -1.98,3 -2.97,5zm726.07,-1241c0,0 -24.73,-6 -4.95,-19c0,0 30.66,-18 42.54,-23c0,0 42.54,-18 101.89,-9l186.96,29c0,0 45.5,7 72.21,21c0,0 68.25,31 93.97,53c0,0 -20.77,31 -44.51,39c0,0 -45.5,22 -100.9,10l-51.44,-16c0,0 -0.99,28 -18.79,24l-104.85,-36c0,0 -27.7,-10 0.99,-11l38.58,-2c-70.23,-20 -161.24,-36 -212.68,-62l0.99,2zm-589.56,2071l-18.79,26c6.92,-9 12.86,-17 18.79,-26zm-201.8,-532c2.97,0 4.95,4 3.96,8c-0.99,4 -3.96,8 -6.92,8c-2.97,0 -4.95,-4 -3.96,-8c0.99,-4 3.96,-8 6.92,-8zm0.99,-6c4.95,0 7.91,6 6.92,14c-0.99,8 -6.92,14 -11.87,14c-4.95,0 -7.91,-6 -6.92,-14c0.99,-8 6.92,-14 11.87,-14zm225.54,-221c-49.46,10 -101.89,68 -141.45,146c11.87,-15 24.73,-28 34.62,-37l106.83,-110l0,1zm720.13,391c1.98,3 4.95,5 13.85,6c0,0 -12.86,60 44.51,86c0,0 173.11,91 295.77,41c0,0 184.98,8 209.71,6c22.75,-2 45.5,-18 63.31,-54l-627.15,-85zm-62.32,75c8.9,1 9.89,1 10.88,-2c0.99,-3 2.97,-14 10.88,-10c7.91,4 10.88,0 11.87,-6c1.98,-6 9.89,-9 16.82,-5c5.94,4 9.89,-7 10.88,-12c0,-1 0.99,-2 2.97,-2c0,1 0.99,3 0.99,4c2.97,16 10.88,29 20.77,40c-2.97,2 -0.99,8 -1.98,12c-1.98,6 -2.97,5 -15.83,3c-12.86,-2 -4.95,21 -20.77,16c0,0 -9.89,-4 -12.86,3c-2.97,8 -4.95,9 -10.88,6c-5.94,-3 -5.94,1 -9.89,6c-2.97,5 -8.9,9 -15.83,7c-5.94,-1 -10.88,8 -20.77,8c7.91,-23 15.83,-45 22.75,-67l0,-1zm-367.98,-924c34.62,-2 69.24,1 100.9,7c-0.99,4 -0.99,8 -0.99,13c-6.92,9 -7.91,21 -2.97,32l25.72,70c4.95,22 26.71,38 47.48,45c7.91,19 26.71,34 45.5,41l2.97,1l64.3,0l0.99,-16c0,-11 6.92,-18 13.85,-26l20.77,-17c12.86,17 24.73,35 36.6,55c4.95,15 9.89,29 14.84,44c-8.9,4 -15.83,11 -20.77,21c-5.94,16 8.9,24 17.81,25c-5.94,21 -38.58,19 -54.41,13c-12.86,-5 -21.76,-14 -28.69,-25l-11.87,-20l-31.65,38c-1.98,-2 -4.95,-3 -6.92,-4c-5.94,-4 -12.86,-7 -18.79,-11c-9.89,-5 -19.78,-11 -29.68,-16c-1.98,-1 -3.96,-4 -4.95,-6c0,0 0,0 0,0l3.96,-4l0,-6c0.99,-10 -0.99,-22 -2.97,-32c-4.95,-22 -16.82,-41 -36.6,-51c-7.91,-4 -15.83,-7 -24.73,-8c-13.85,-2 -25.72,1 -36.6,7l-43.52,-90c-12.86,-26 -25.72,-52 -38.58,-78l-0.99,-2zm399.63,358c20.77,99 25.72,196 10.88,290c-28.69,-13 -53.42,-32 -73.2,-58c-27.7,-41 -55.39,-83 -82.1,-124c-8.9,-13 -16.82,-26 -24.73,-39c-8.9,-14 -18.79,-28 -27.7,-43c5.94,-1 11.87,-2 17.81,-3l2.97,0l2.97,-1c21.76,-12 54.41,-20 79.14,-24c32.64,-5 65.29,-4 95.95,3l-1.98,-1zm-126.62,-571c1.98,-6 4.95,-12 6.92,-16c5.94,-11 2.97,-22 3.96,-29c0.99,-6 -2.97,-36 28.69,-65c0,0 20.77,-20 48.47,-21c0,0 20.77,2 28.69,-3c7.91,-6 37.59,-18 52.43,-9c0,0 63.31,33 95.95,78l51.44,64l-65.29,95l-0.99,0c-17.81,-11 -38.58,-21 -58.36,-29c-22.75,-10 -46.49,-18 -70.23,-26c-39.57,-13 -80.12,-25 -119.69,-36l-1.98,-1l0,-2zm-5.94,406l-46.49,0c0,0 -33.63,-12 -37.59,-38c0,0 -39.57,-10 -44.51,-36l-26.71,-72c0,0 -5.94,-14 4.95,-19c0,0 -6.92,-25 13.85,-32l86.06,-34c0,0 -0.99,-8 5.94,-14l38.58,-35c0,0 13.85,-10 26.71,-2l35.61,21c0,0 12.86,-9 29.68,2c16.82,11 45.5,34 45.5,34c0,0 15.83,14 17.81,37c0,0 3.96,38 -6.92,50l-124.64,103c-9.89,11 -18.79,22 -18.79,37l0.99,-2zm-1.98,-155c0,0 3.96,23 27.7,14l52.43,-42c0,0 16.82,-16 0,-30l-60.34,-39c-8.9,-6 -23.74,-11 -23.74,10l2.97,86l0.99,1zm-450.08,-433c0,0 -7.91,-9 -0.99,-20c0,0 9.89,-14 18.79,-9l58.36,28c0,0 13.85,-22 29.68,-12l0.99,-41c0,0 -16.82,-19 3.96,-32c0,0 18.79,-13 35.61,-1c0,0 11.87,19 -2.97,31l4.95,64c0,0 17.81,10 13.85,23c0,0 0,6 5.94,-4c0,0 0.99,-8 6.92,-10c6.92,-3 4.95,-8 2.97,-10c-1.98,-2 -7.91,-13 -7.91,-17c0,-4 -6.92,-176 -6.92,-176c0,0 0,-24 7.91,-35c0,0 9.89,-21 19.78,-31c21.76,15 44.51,28 69.24,38c39.57,30 78.15,59 117.71,89l0.99,1l0.99,1c14.84,8 28.69,7 43.52,3l15.83,13c0,0 61.33,47 59.35,84c0,0 1.98,32 -30.66,40l-207.73,58c0,0 -27.7,8 -37.59,25l-54.41,63c0,0 -9.89,12 -24.73,6c-14.84,-6 -64.3,-34 -64.3,-34c0,0 -30.66,-18 -16.82,-49c0,0 4.95,-8 3.96,-14c0,0 -18.79,-28 -8.9,-35l-55.39,-36l-1.98,-1zm206.74,867l-28.69,-35c-7.91,3 -23.74,8 -43.52,15c-0.99,31 -3.96,61 -6.92,91l1.98,-2c25.72,-23 51.44,-46 77.16,-70l0,1zm-100.9,-1396c-1.98,-17 0,-18 39.57,-30c35.61,-9 71.22,-19 106.83,-28c28.69,-2 57.37,-4 86.06,-6c25.72,7 50.45,13 76.17,20c115.74,-48 254.22,6 397.66,81c-7.91,-2 -15.83,-3 -22.75,-4l-186.96,-29c-25.72,-4 -52.43,-3 -78.15,1c-9.89,2 -22.75,5 -32.64,9c-14.84,6 -30.66,16 -44.51,24l0,0l0,0c-25.72,17 -16.82,41 7.91,49c7.91,4 16.82,7 25.72,11l-278.95,-13c-54.41,-13 -82.1,-55 -93.97,-84l-1.98,-1zm365.01,325c0,0 0,-22 -91.99,-85c-1.98,-1 -0.99,-4 7.91,-5c0,0 80.12,-12 123.65,-24c0,0 125.63,29 180.03,29c0,0 -41.55,-31 -155.3,-63c0,0 -17.81,-8 -59.35,-7c0,0 -80.12,-4 -144.42,14c0,0 -30.66,16 -13.85,51c30.66,46 103.87,69 154.31,90l-0.99,0zm2654.99,132c6.92,30 13.85,61 19.78,91c1.98,-2 4.95,-3 6.92,-5c-6.92,-30 -12.86,-61 -19.78,-91c-2.97,1 -4.95,3 -7.91,5l0.99,0zm35.61,163c9.89,45 18.79,90 27.7,134c-53.42,23 -50.45,101 10.88,106l-1.98,82c0,0 -0.99,0 -0.99,0l0,0l0,0c-11.87,3 -22.75,5 -34.62,8c-5.94,-15 -12.86,-31 -18.79,-46c-2.97,-11 -9.89,-20 -19.78,-21l-146.4,-394l1.98,-1c19.78,-15 42.54,-43 29.68,-69l0,-1l-0.99,-1c-1.98,-2 -3.96,-4 -5.94,-5l0,-4c0,-4 -0.99,-10 -1.98,-16c-2.97,-1 -5.94,-2 -8.9,-3c1.98,7 2.97,14 2.97,18c-21.76,-8 -57.37,0 -76.17,6l0,0c-41.55,13 -100.9,50 -112.77,98c-1.98,-4 -3.96,-9 -5.94,-14l-175.09,-94c-0.99,15 0,24 0,24l187.95,100c0,-51 65.29,-92 108.81,-106c31.65,-9 69.24,-14 81.11,1c8.9,18 -3.96,42 -26.71,59c-5.94,-17 -13.85,-21 -32.64,-16l0,0c-39.57,13 -98.92,37 -90.02,90l0,1l0,1l1.98,5c-16.82,18 -33.63,7 -40.56,-19c0,-2 -0.99,-4 -0.99,-6l-186.96,-100c1.98,10 4.95,19 6.92,28l173.11,92l-0.99,3c-0.99,1 -1.98,2 -1.98,3l-167.17,-89c2.97,10 5.94,19 8.9,29l145.41,77c-0.99,2 -2.97,4 -3.96,6l-137.5,-73c2.97,10 6.92,20 9.89,30l114.75,61c-0.99,2 -2.97,4 -3.96,6l-106.83,-57c3.96,11 8.9,21 12.86,31l81.11,43c-0.99,2 -2.97,4 -3.96,6l-73.2,-38c5.94,12 10.88,23 15.83,32l44.51,23c-0.99,2 -2.97,4 -3.96,6l-34.62,-18c13.85,24 22.75,36 22.75,36l0,0l0,0l-0.99,1c23.74,-36 49.46,-70 76.17,-104c6.92,13 17.81,23 32.64,26c5.94,1 11.87,1 17.81,-1l29.68,79c-142.44,170 -236.42,387 -288.84,622c-83.09,694 191.9,1069 622.2,1203c282.91,57 549,-23 761.68,-189c551.97,-429 698.37,-1495 57.37,-1865c-198.83,-115 -417.44,-146 -624.18,-101c-13.85,34 -22.75,66 -26.71,97c306.65,-90 622.2,14 806.19,274c-230.48,-268 -531.2,-326 -811.14,-215c-1.98,113 32.64,214 -15.83,347l-5.94,8c-2.97,0 -5.94,1 -8.9,1l0,0l0,0c-53.42,11 -91.99,43 -121.67,87l-0.99,1c-3.96,-1 -7.91,-2 -12.86,-2l1.98,-82l0,-2c65.29,-15 63.31,-114 -10.88,-106l0,0c-8.9,-46 -18.79,-92 -28.69,-138c-1.98,2 -4.95,4 -6.92,5l-3.96,0zm-722.11,963l0,0c-6.92,-2 -14.84,-3 -21.76,-4l122.66,-756l32.64,17l-2.97,-1l-28.69,187c6.92,-20 14.84,-39 22.75,-59l18.79,-123l29.68,15l0.99,-1c-96.94,196 -158.27,414 -176.08,641c0.99,28 1.98,56 2.97,84l-0.99,0zm91.01,-765l-2.97,-1l-122.66,759c-10.88,-3 -22.75,-7 -33.63,-16c0,0 -0.99,-1 -0.99,-1l128.6,-758l32.64,16l-0.99,1zm-42.54,-22l-2.97,-1l-127.61,751c-11.87,-16 -23.74,-39 -29.68,-53l127.61,-714l32.64,16l0,1zm-42.54,-22l-2.97,0l-124.64,696l-25.72,-62l121.67,-650l31.65,16zm-42.54,-22l-1.98,0l-118.7,633l-25.72,-61l114.75,-588l31.65,16zm-42.54,-22l-1.98,0l-111.78,571l-25.72,-62l107.82,-525l31.65,16zm-42.54,-22l-1.98,0l-105.84,511c-7.91,-14 -17.81,-26 -28.69,-38l104.85,-488l31.65,16l0,-1zm-42.54,-22l-0.99,0l-103.87,482c-9.89,-9 -19.78,-18 -30.66,-27l104.85,-471l30.66,16zm-42.54,-22l-0.99,0l-103.87,468c-10.88,-8 -20.77,-15 -31.65,-21l105.84,-462l30.66,16l0,-1zm-42.54,-22l-0.99,0l-105.84,461c-10.88,-6 -21.76,-12 -32.64,-17l108.81,-459l30.66,15zm-42.54,-22l0,0l-108.81,459c-11.87,-6 -23.74,-11 -33.63,-15l112.77,-459l29.68,15zm-43.52,-16l-7.91,33l-114.75,-52c18.79,-10 23.74,-22 24.73,-26l97.93,44l0,1zm-11.87,47l-7.91,33l-168.16,-76c3.96,-1 5.94,-1 5.94,-1l42.54,-14l128.6,58l-0.99,0zm-11.87,47l-7.91,33l-81.11,-37c-14.84,-13 -32.64,-21 -51.44,-23l-65.29,-29c5.94,-8 10.88,-16 10.88,-16c2.97,-4 6.92,-8 11.87,-11l183,83zm-11.87,47l-7.91,33l-27.7,-12c-4.95,-17 -11.87,-33 -20.77,-47l56.38,26zm-11.87,47l-7.91,33l-8.9,-4l0,-2c0,-13 -0.99,-25 -2.97,-37l19.78,9l0,1zm-11.87,47l-7.91,33l-3.96,-2c2.97,-11 4.95,-22 5.94,-34l5.94,3zm-11.87,47l-7.91,33l-9.89,-5c5.94,-9 10.88,-20 13.85,-31l3.96,2l0,1zm-11.87,47l-7.91,33l-31.65,-15c9.89,-7 17.81,-15 25.72,-26l14.84,7l-0.99,1zm-11.87,47l-7.91,33l-271.04,-123c8.9,-8 16.82,-17 23.74,-26l87.05,39c19.78,39 52.43,65 90.02,65c12.86,0 24.73,-3 35.61,-8l43.52,20l-0.99,0zm-498.55,366l-34.62,-6l-1.98,-6l201.8,-16l1.98,-11l-126.62,11l-0.99,6l-83.09,-14l0,-7l217.62,-18l2.97,-11l-131.56,10l-1.98,8l-85.07,-12l0,-8l219.6,-19l3.96,-13l-131.56,12l0,8l-91.99,-12l0.99,-8l269.06,-27l46.49,15l-0.99,9l-82.1,5l-3.96,10l36.6,-3l42.54,13l-0.99,6l-79.14,7l-0.99,7l28.69,-2l48.47,16l-0.99,7l-80.12,7l-1.98,7l22.75,-2l47.48,19l-249.28,12l-0.99,0zm237.41,-176c-11.87,-10 -25.72,19 -11.87,25c2.97,1 5.94,1 9.89,-2c6.92,-6 8.9,-17 1.98,-24l0,1zm10.88,-5c-19.78,-16 -43.52,25 -26.71,40l-50.45,-19l-1.98,6l-159.26,12l0.99,7l44.51,19l0.99,-7l129.58,-15l-1.98,10l13.85,-1l1.98,-6l24.73,-3c0.99,1 1.98,1 3.96,2c4.95,2 11.87,2 17.81,-3c12.86,-9 16.82,-30 4.95,-40l-2.97,-2zm-2.97,2c-17.81,-15 -40.56,28 -18.79,37c3.96,2 9.89,1 14.84,-2c10.88,-8 14.84,-25 3.96,-34l0,-1zm-187.95,-123c0,0 34.62,5 66.28,-18l-30.66,-15c-30.66,-17 -50.45,6 -50.45,6l-163.22,143c-37.59,28 -28.69,60 -28.69,60l36.6,88c11.87,36 54.41,43 54.41,43l304.67,-8c28.69,3 27.7,-64 27.7,-64c1.98,-1 61.33,38 132.55,86l42.54,-182l-1.98,-1l-151.35,-75l-18.79,-9l-3.96,8l-72.21,12l0.99,-10l-72.21,9l-13.85,9l-89.03,-11l0.99,-8l207.73,-29l-76.17,-36c0,0 -61.33,59 -141.45,36c0,0 -5.94,-6 4.95,-16c11.87,-8 20.77,-12 33.63,-19l0.99,1zm220.59,97l-71.22,11l-13.85,-11l-97.93,11l-9.89,9l-56.38,-12l0,-9l213.67,-26l36.6,18l0,9l-0.99,0zm-217.62,54l0,-7l123.65,-13l31.65,4l5.94,-9l-44.51,-16l0,8l-158.27,15l41.55,19l0,-1zm392.71,202l43.52,-193l-34.62,-14l-43.52,185c10.88,8 22.75,15 33.63,23l0.99,-1zm56.38,-188l-44.51,196c11.87,8 22.75,15 34.62,23l45.5,-206l-34.62,-14l-0.99,1zm47.48,19l-45.5,209c11.87,8 22.75,16 34.62,23l46.49,-218l-34.62,-14l-0.99,0zm47.48,19l-46.49,221l32.64,22l48.47,-229l-33.63,-14l-0.99,0zm46.49,19l-49.46,232l36.6,25l45.5,-225c0,-7 0,-13 0,-19l-32.64,-13zm37.59,78l-36.6,188l19.78,13c-27.7,-17 -84.08,-20 -84.08,-20l-228.5,-174c-15.83,-6 -19.78,6 -19.78,6c-9.89,13 -41.55,69 -41.55,69c-3.96,12 -13.85,5 -13.85,5l-57.37,-42c-19.78,-4 -35.61,0 -35.61,0c6.92,8 1.98,30 1.98,30l-65.29,160c-4.95,15 -14.84,18 -14.84,18c-57.37,17 50.45,24 50.45,24c44.51,-26 110.79,-146 110.79,-146c54.41,34 353.14,64 353.14,64c26.71,4 46.49,20 46.49,20c1.98,4 3.96,8 4.95,11l27.7,-129c-7.91,-35 -14.84,-69 -19.78,-99l1.98,2zm26.71,131l-24.73,116c22.75,38 51.44,66 82.1,86c0,-1 -31.65,-99 -57.37,-202zm-284.89,-667c5.94,0 9.89,6 9.89,14c0,8 -4.95,14 -9.89,14c-5.94,0 -9.89,-6 -9.89,-14c0,-8 4.95,-14 9.89,-14zm-3.96,-117c1.98,0 2.97,0 4.95,0c-49.46,3 -89.03,60 -89.03,128c0,69 39.57,125 89.03,128c-1.98,0 -2.97,0 -4.95,0c-51.44,0 -93.97,-58 -93.97,-129c0,-71 41.55,-129 93.97,-129l0,2zm-104.85,194c-4.95,-13 -7.91,-27 -9.89,-41l-50.45,-23c-2.97,11 -6.92,21 -12.86,31l72.21,33l0.99,0zm-10.88,-57c0,-3 0,-5 0,-8c0,-10 0.99,-19 1.98,-28l-42.54,-19c-0.99,11 -1.98,23 -4.95,35l45.5,21l0,-1zm3.96,-50c1.98,-11 5.94,-22 9.89,-32l-55.39,-25c0.99,11 1.98,24 0.99,38l44.51,20l0,-1zm15.83,-45c5.94,-11 11.87,-20 19.78,-28l-101.89,-46c0,9 0,14 0,14c0,0 13.85,0 15.83,13c0,0 1.98,7 2.97,19l63.31,29l0,-1zm29.68,-39c10.88,-10 23.74,-17 37.59,-20l-47.48,-21c-6.92,5 -13.85,8 -20.77,4c0,0 -20.77,-1 -16.82,-21l-65.29,-30c0,14 0.99,27 0.99,37l111.78,51zm60.34,-13c55.39,0 100.9,62 100.9,139c0,77 -45.5,139 -100.9,139c-55.39,0 -100.9,-62 -100.9,-139c0,-77 45.5,-139 100.9,-139zm0,95c3.96,0 7.91,2 10.88,5c-1.98,-1 -3.96,-1 -5.94,-1c-11.87,0 -21.76,18 -21.76,40c0,22 9.89,40 21.76,40c1.98,0 3.96,0 5.94,-1c-2.97,3 -6.92,5 -10.88,5c-12.86,0 -23.74,-20 -23.74,-44c0,-24 10.88,-44 23.74,-44zm-27.7,-183l0,-11c0,0 -20.77,5 -15.83,-9c0,0 4.95,-12 20.77,-15c0,0 6.92,-42 12.86,-49l1.98,1c0.99,3 4.95,16 23.74,13c17.81,-3 20.77,-18 21.76,-26c0,-1 0,-2 0.99,-3l0,0c0,0 0,-1 0,-1l0,0c0.99,-3 0,-10 -0.99,-16c-0.99,-6 -3.96,-11 -7.91,-13c2.97,-2 6.92,-11 -33.63,-30c0,0 -5.94,-5 -8.9,-10l45.5,29c6.92,6 13.85,13 16.82,22c0.99,2 1.98,6 0.99,8l0,0l-2.97,56c-0.99,15 -13.85,30 -27.7,36l-44.51,18c-0.99,0 -1.98,1 -2.97,1l0,-1zm20.77,-86c0.99,-1 0.99,-3 0.99,-5c1.98,1 7.91,4 15.83,-2c0.99,-1 10.88,-6 8.9,-20c0,-1 -0.99,-7 -8.9,-9l0,0c1.98,-2 5.94,-7 12.86,-8c0.99,1 2.97,1 4.95,2l0,0c0,0 0,0 0,0c2.97,1 5.94,6 6.92,11c0.99,6 1.98,12 0.99,15c0,0 0,1 0,1l0,0c0,1 0,2 -0.99,3c-0.99,7 -3.96,22 -19.78,25c-18.79,3 -20.77,-12 -20.77,-12l0,-1l0,0l-0.99,0zm-0.99,-8c-1.98,-2 -3.96,-7 -0.99,-17c0,0 6.92,-15 15.83,-12l0,1l0,0l0.99,0c7.91,2 7.91,7 7.91,7l0,0c1.98,13 -7.91,18 -7.91,18l0,0c-8.9,6 -14.84,1 -14.84,1l-0.99,0l-0.99,0l0.99,2zm-35.61,-136l760.69,414l-0.99,2c15.83,-29 32.64,-57 50.45,-84l-0.99,1l-775.53,-406l-7.91,21l772.56,403c-0.99,2 -1.98,4 -3.96,6l-771.57,-402l-4.95,14c-0.99,3 -0.99,5 -1.98,8l767.61,399l-1.98,3l-1.98,3l-766.62,-399c-3.96,8 -8.9,14 -13.85,18l0,0l0.99,-1zm-130.57,227l69.24,31l8.9,-33l-79.14,-36c0.99,12 0.99,25 0.99,38zm-1.98,-53l83.09,38l8.9,-33l-93.97,-43c0,7 0,13 0.99,20c0.99,5 0.99,12 0.99,18zm-1.98,-53l97.93,44l8.9,-33l-103.87,-47c-0.99,11 -1.98,23 -1.98,36l-0.99,0zm3.96,-51l105.84,48c1.98,-9 7.91,-28 26.71,-30l5.94,7c0,0 -17.81,3 -23.74,28l-2.97,14l-7.91,34l-2.97,14l0,1l0,0l-5.94,27l17.81,0l9.89,11l8.9,0c0,0 -1.98,18 18.79,9l29.68,-12l16.82,-7c4.95,-3 18.79,-12 23.74,-26c2.97,-3 2.97,-14 2.97,-14l2.97,-53c0,0 2.97,-15 -19.78,-33l-48.47,-31c0,0 -13.85,3 -26.71,-9l-22.75,-16c0,0 -5.94,-6 2.97,-15l10.88,-9c-7.91,4 -13.85,4 -13.85,4c-30.66,6 -76.17,-14 -76.17,-14c-36.6,-15 -38.58,-36 -36.6,-47c1.98,12 7.91,26 24.73,24l35.61,3l2.97,0l0.99,-3l65.29,-221c0,0 54.41,-18 90.02,-29l-2.97,-2l2.97,-6l8.9,5c10.88,-3 19.78,-6 21.76,-6l0,0l-5.94,14l588.57,314c0,-8 0,-16 0.99,-24l-588.57,-315c-35.61,5 -72.21,20 -105.84,31l3.96,-12l-124.64,55l-27.7,151l0.99,1l-2.97,15c-4.95,24 8.9,41 27.7,53l-9.89,53c0,0 -0.99,7 -2.97,18zm354.13,160c8.9,-6 21.76,-17 22.75,-36l-41.55,-25c0,0 -13.85,-9 -22.75,-2l-46.49,-24c0,0 -14.84,-4 -16.82,6l-2.97,32l106.83,48l0.99,1zm679.58,-110l-171.13,-92c0,-7 0.99,-15 1.98,-23l161.24,87c1.98,9 4.95,19 7.91,28zm-8.9,-37l-159.26,-86c0.99,-7 1.98,-15 3.96,-22l158.27,85c-2.97,6 -3.96,14 -2.97,23zm2.97,-23c0,0 0,-1 0,-1c0,0 0,1 0,1zm-3.96,-10l-152.34,-82c1.98,-7 2.97,-14 4.95,-22l136.51,74c2.97,12 7.91,23 10.88,30zm-12.86,-39l-132.55,-72c1.98,-7 3.96,-14 6.92,-21l125.63,68c-0.99,8 -0.99,16 0.99,25l-0.99,0zm0.99,-32l-124.64,-67c2.97,-7 4.95,-13 7.91,-20l106.83,58l5.94,17c9.89,0 3.96,10 3.96,10c0,1 -0.99,2 -0.99,3l0.99,-1zm-12.86,-39l-99.91,-54c2.97,-6 6.92,-13 9.89,-19l79.14,43l10.88,30zm-12.86,-34l-1.98,-6l-71.22,-39c4.95,-8 9.89,-15 15.83,-22l41.55,22l16.82,46l-0.99,-1zm-75.18,-76l-12.86,-7c0,0 -5.94,8 -13.85,23l-448.1,-244l13.85,-18l461.95,246l-0.99,0zm-477.78,-224l-0.99,2l449.09,245c-2.97,6 -5.94,12 -9.89,19l-454.04,-246l-1.98,3l16.82,-22l0.99,-1zm-19.78,25l455.03,247c-2.97,6 -5.94,13 -8.9,20l-459.97,-249l13.85,-18zm-17.81,23l461.95,250c-2.97,7 -4.95,13 -7.91,20l-467.89,-253c1.98,-3 4.95,-5 5.94,-9l6.92,-9l0.99,1zm-18.79,23l470.86,254c-1.98,7 -3.96,14 -5.94,21l-487.67,-263c7.91,-3 15.83,-7 22.75,-13l0,1zm-31.65,16l494.6,266c-1.98,7 -2.97,14 -4.95,22l-526.25,-283c5.94,-1 11.87,-1 17.81,-2c0,0 7.91,-1 17.81,-4l0.99,1zm-48.47,7l537.13,288c-0.99,7 -1.98,15 -2.97,23l-576.7,-309c3.96,0 6.92,0 10.88,0l-0.99,3c10.88,-2 21.76,-3 32.64,-5zm-128.6,220l7.91,-21l734.97,386c6.92,12 13.85,24 21.76,35l-764.65,-400zm10.88,-27l7.91,-21l701.34,369c4.95,11 10.88,22 16.82,33l-726.07,-381zm10.88,-27l7.91,-21l672.65,355c3.96,10 8.9,20 12.86,31l-693.42,-365zm10.88,-27l7.91,-21l646.93,343c2.97,9 6.92,19 10.88,30l-665.73,-352zm10.88,-27l7.91,-21l625.17,332c1.98,9 4.95,18 8.9,29l-641.99,-340zm10.88,-27l7.91,-21l605.39,322c0.99,6 3.96,16 6.92,28l-620.22,-329zm10.88,-27l7.91,-21l590.55,316c0,8 0.99,17 1.98,25l-601.43,-320l0.99,0zm-205.75,31l-25.72,139l1.98,3l0.99,2c0,0 -1.98,36 18.79,34l0.99,0l32.64,3l65.29,-223l-94.96,42zm-697.38,-240c-51.44,-61 -23.74,-303 39.57,-499c118.7,-275 656.82,-348 1025.79,-171c-354.13,-116 -674.63,-112 -937.76,95c-15.83,15 -26.71,34 -20.77,54c40.56,77 81.11,155 121.67,232c0,0 -27.7,7 -35.61,26c0,0 -46.49,-11 -53.42,24c-46.49,79 -92.98,159 -139.48,238l0,1zm1054.48,-680c22.75,21 58.36,39 69.24,63c57.37,10 121.67,40 190.91,77l-28.69,-76c-81.11,-55 -160.25,-86 -231.47,-64zm-77.16,-41c0,0 43.52,25 65.29,36l8.9,-3c20.77,-7 41.55,-9 63.31,-7c-36.6,-22 -108.81,-38 -137.5,-26zm-853.67,172c0,0 -7.91,15 5.94,12c0,0 0.99,0 0.99,-1l0,0c148.38,-53 303.68,-83 460.96,-94c168.16,-12 338.3,-4 505.48,17l0.99,0l0.99,0c3.96,1 6.92,2 10.88,4l7.91,-1c-222.57,-158 -742.88,-176 -993.15,63l-0.99,0zm1615.35,547c5.94,-25 10.88,-62 2.97,-97c0,0 -44.51,-11 -50.45,-46c0,0 -10.88,-43 27.7,-73c2.97,3 7.91,4 11.87,4c4.95,8 15.83,8 24.73,5l40.56,16c0,6 2.97,12 6.92,16l0.99,1l47.48,18c-2.97,10 -0.99,21 8.9,27l0.99,0l35.61,17l-9.89,14l0,1c-9.89,21 -6.92,48 5.94,67l0,0c11.87,16 26.71,29 45.5,36l48.47,174l-68.25,30c0,0 -17.81,11 -38.58,4l-65.29,-15l-76.17,-200l0,1zm-478.77,-684c-22.75,-25 -56.38,-103 -47.48,-123c11.87,-22 25.72,-40 40.56,-53l-6.92,0c0,0 -91.01,-126 -131.56,-146c-41.55,-20 -167.17,-17 -219.6,-17c-52.43,0 -237.41,4 -192.89,-46l0,0c-7.91,-3 -13.85,-8 -14.84,-16c0,0 0,-8 1.98,-17c15.83,-38 24.73,-78 28.69,-119l0,-1l1.98,-14c0,0 3.96,-19 19.78,-14c16.82,6 15.83,2 15.83,2c0,0 14.84,1 12.86,13c0,0 16.82,3 26.71,17l0,0c0,0 20.77,-12 9.89,-27c-9.89,-15 -26.71,-44 -9.89,-44c-34.62,-5 -91.99,-14 -111.78,-16c0,0 -16.82,-4 -27.7,-10c-90.02,-41 -173.11,-91 -246.31,-155l0,0c-3.96,2 -7.91,3 -12.86,3c-17.81,0 -31.65,-15 -31.65,-33c0,-18 13.85,-33 31.65,-33c17.81,0 31.65,15 31.65,33c0,5 -0.99,9 -2.97,13l0,0c72.21,41 144.42,82 215.64,123c0,0 28.69,15 37.59,15c8.9,0 147.39,9 147.39,9c0,0 8.9,0 13.85,4l11.87,10c0,0 2.97,2 6.92,2c0,0 1.98,0 4.95,0c0,0 0,-1 0,-1c-0.99,-11 -16.82,-12 -17.81,-17c-2.97,-15 -5.94,-31 -9.89,-45c-0.99,-12 2.97,-17 12.86,-21c-14.84,-32 -34.62,-58 -57.37,-81c-15.83,-12 -31.65,-21 -50.45,-23c-2.97,-3 -1.98,-7 -0.99,-10c-5.94,2 -11.87,4 -17.81,0c-13.85,-11 -27.7,-22 -41.55,-33c-19.78,-11 -39.57,-18 -60.34,-20c0,0 -38.58,-5 -57.37,-23c-48.47,-26 -207.73,-154 -218.61,-340c0,-8 0.99,-16 5.94,-23c26.71,-28 62.32,-33 104.85,-23c68.25,20 133.54,50 196.85,84c19.78,11 35.61,25 46.49,45c47.48,89 85.07,183 106.83,284c0.99,17 4.95,34 12.86,49c28.69,31 54.41,62 64.3,101c5.94,0 9.89,5 12.86,11c6.92,17 12.86,35 19.78,52c2.97,9 -0.99,17 -6.92,23l11.87,54l32.64,20c0,0 14.84,-3 14.84,-15c0,-12 12.86,-11 17.81,-14c4.95,-3 14.84,-4 24.73,-11c9.89,-7 13.85,-3 13.85,-3c0,0 23.74,-60 117.71,-26c0,0 61.33,29 48.47,84c0,0 -12.86,39 -12.86,47c0,8 0,12 -3.96,18c0,0 -2.97,4 -0.99,13c0,0 15.83,-1 33.63,10l22.75,13c0,0 8.9,5 3.96,15c0,0 -3.96,18 -15.83,14c0,0 -14.84,-1 -25.72,-10c0,0 -24.73,-13 -25.72,2c0,0 -10.88,58 -26.71,44c0,0 7.91,26 41.55,31c0,0 25.72,-9 45.5,3c0,0 43.52,-2 72.21,17c0,0 98.92,29 139.48,58c0,0 108.81,45 106.83,4l0,0c-81.11,-64 -116.72,-109 -90.02,-128c-94.96,-157 -79.14,-261 112.77,-260c32.64,-30 88.04,5 132.55,8l39.57,6c-15.83,12 -44.51,38 -35.61,63c4.95,16 67.27,93 141.45,168c51.44,53 108.81,106 156.29,139c5.94,7 48.47,50 89.03,58c20.77,9 355.12,154 393.7,185l1.98,1c0,0 22.75,11 40.56,2l0.99,-1l18.79,-14l0.99,-1c0,0 19.78,-18 5.94,-38c-3.96,-7 -56.38,-106 -78.15,-127l-0.99,-1c0,0 -59.35,-47 -99.91,-75c-5.94,-4 -14.84,-14 -26.71,-28c-57.37,-66 -186.96,-216 -558.89,-336l-1.98,0l-20.77,-3l76.17,-53c253.23,44 462.94,167 657.81,321c75.18,117 125.63,233 139.48,346c6.92,71 13.85,141 20.77,212c-8.9,-44 -28.69,-76 -60.34,-96c-47.48,-23 -93.97,-47 -141.45,-70c-142.44,-56 -285.88,-112 -428.32,-168c-91.01,27 -249.28,19 -304.67,49c59.35,13 118.7,25 177.07,38c13.85,3 28.69,7 43.52,25c0,0 70.23,133 219.6,138c92.98,86 185.97,171 277.96,257c54.41,36 113.76,129 163.22,109c-73.2,59 -157.28,98 -261.15,101c-164.21,-4 -248.29,-180 -310.61,-307l-24.73,-61l0,0c-5.94,-11 -38.58,-67 -44.51,-77c-38.58,-68 -59.35,-105 -157.28,-130l0,0c-58.36,-16 -88.04,-53 -101.89,-80l-109.8,67l0,0c24.73,31 47.48,68 60.34,109l0,1c0,0 15.83,107 40.56,163l0,0c0,0 39.57,102 162.23,138l0,0c0,0 19.78,8 42.54,-5l20.77,-19c1.98,-2 12.86,-13 14.84,5l0,2c0,0 -40.56,73 54.41,100l1.98,1l0,3l0,1c3.96,2 8.9,5 13.85,9l220.59,97c0,0 22.75,0 29.68,16l35.61,15c0,0 11.87,12 9.89,29l33.63,14c0,0 28.69,16 9.89,36c0,0 -12.86,11 -22.75,3l-35.61,-16c0,0 -29.68,22 -48.47,-2c-17.81,-23 -224.55,-101 -224.55,-101c0,0 -13.85,-3 -14.84,-15c0,0 -14.84,3 -24.73,-1c0,0 -28.69,44 -48.47,40l-8.9,-4l0,0l-16.82,19c0,0 -8.9,12 -4.95,32c0,0 0,32 39.57,34c0,0 10.88,-6 21.76,-9c10.88,-3 16.82,-9 16.82,-14c0,-6 8.9,-12 13.85,-26c4.95,-14 51.44,-5 51.44,-5l99.91,42c0,0 13.85,13 -4.95,7l-37.59,-13c0,0 -18.79,-4 -11.87,12l14.84,18l-33.63,-15c0,0 -18.79,-10 -31.65,3c0,0 -17.81,8 -24.73,20c0,0 -27.7,20 -46.49,9c0,0 -41.55,3 -70.23,-38c0,0 -19.78,-29 -4.95,-59l15.83,-22l0,0l-44.51,-20c0,0 -13.85,-10 -1.98,-25l-54.41,-21c0,0 -6.92,-6 -2.97,-15l-49.46,-20c0,0 -16.82,8 -18.79,-5c0,0 -16.82,3 -15.83,-12l-33.63,-13c12.86,-7 20.77,-17 20.77,-27c0,-6 -2.97,-12 -8.9,-17l29.68,15c0,0 15.83,-6 17.81,5c0,0 23.74,-11 27.7,18l27.7,12c0,0 9.89,-22 36.6,-8l32.64,14c0,0 8.9,-22 27.7,-9l60.34,23c0,0 8.9,-8 21.76,-10c-79.14,-29 -50.45,-95 -45.5,-104c-0.99,-2 -2.97,0 -2.97,0l0,0l-20.77,19l-0.99,0c-24.73,15 -47.48,6 -49.46,5c-123.65,-37 -165.2,-139 -166.18,-142c-24.73,-55 -40.56,-158 -41.55,-164c-15.83,-53 -48.47,-98 -81.11,-132c0.99,3 0.99,7 1.98,10c11.87,67 4.95,116 10.88,183c3.96,38 9.89,80 22.75,118c0.99,2 2.97,7 4.95,13c4.95,1 10.88,2 16.82,4c45.5,55 28.69,56 43.52,97c-21.76,-7 -48.47,2 -67.27,30c-1.98,4 -4.95,8 -6.92,12c1.98,4 4.95,9 6.92,13c-28.69,6 -49.46,22 -66.28,41c-2.97,-2 -3.96,-5 -7.91,-7c-64.3,28 -89.03,102 -54.41,128c0.99,12 4.95,23 11.87,33c0,3 -0.99,5 -0.99,8c-19.78,-17 -33.63,-40 -45.5,-67c-29.68,-26 -36.6,-60 -32.64,-97c-16.82,-17 -28.69,-50 -9.89,-70c5.94,-6 11.87,-13 17.81,-19c6.92,33 24.73,82 62.32,112c2.97,-2 4.95,-4 7.91,-6c-3.96,-4 -5.94,-9 -9.89,-12c-26.71,-15 -53.42,-74 -49.46,-104c7.91,-10 15.83,-21 26.71,-26c0,-12 3.96,-20 13.85,-23c3.96,-1 6.92,0 9.89,2c4.95,-5 10.88,-9 16.82,-11c13.85,1 24.73,9 33.63,20c14.84,-4 29.68,-5 44.51,1c0,-5 1.98,-10 5.94,-15c1.98,-3 2.97,-5 1.98,-9c-1.98,-7 -3.96,-11 -1.98,-18c2.97,-6 6.92,-10 11.87,-13c-0.99,-5 -2.97,-10 -3.96,-13c-12.86,-40 -19.78,-85 -23.74,-124c-5.94,-64 0.99,-119 -10.88,-183c-1.98,-12 -4.95,-24 -7.91,-34c-35.61,-32 -65.29,-51 -65.29,-51l0.99,-1c-3.96,5 -11.87,7 -24.73,4c-18.79,-5 -42.54,-19 -53.42,-24c-66.28,-19 -170.14,33 -158.27,103c0,8 1.98,15 3.96,23l0,0l11.87,33l2.97,2zm109.8,-203c11.87,2 23.74,6 36.6,11c21.76,11 49.46,10 65.29,25c8.9,9 12.86,19 8.9,25l1.98,-3c0,0 25.72,16 58.36,44c-19.78,-67 -47.48,-103 -63.31,-118c-2.97,-3 -14.84,-14 -24.73,-23c-22.75,-6 -117.71,-31 -129.58,-35c-10.88,-3 -55.39,-23 -66.28,-24c-9.89,-2 92.98,73 111.78,97l0,0l0.99,1zm810.15,278c0,0 -73.2,-4 -123.65,-42l202.78,-90l47.48,26l-127.61,105l0.99,1zm-485.69,-222c-76.17,25 -126.62,72 -126.62,72l0,0l0,0c-19.78,-88 -54.41,-136 -74.19,-157c33.63,8 75.18,19 90.02,27c22.75,12 42.54,-6 42.54,-6l68.25,61l0.99,3l-0.99,0zm-171.13,510c0.99,-1 7.91,3 13.85,10c6.92,7 10.88,14 8.9,15c-0.99,1 -7.91,-3 -13.85,-10c-6.92,-7 -10.88,-14 -8.9,-15zm-46.49,-45c0,0 12.86,26 41.55,30l4.95,-17c0,0 -21.76,-10 -28.69,-25l-17.81,12zm22.75,-11c0.99,-1 6.92,2 12.86,7c5.94,5 10.88,10 9.89,12c-0.99,1 -6.92,-2 -12.86,-7c-5.94,-5 -10.88,-10 -9.89,-12zm1.98,69c4.95,-5 9.89,-9 14.84,-14c3.96,17 17.81,30 33.63,35c-4.95,6 -9.89,12 -14.84,17c-11.87,-5 -29.68,-19 -33.63,-39l0,1zm155.3,14c23.74,-2 43.52,8 43.52,23c0,15 -19.78,29 -43.52,31c-23.74,2 -43.52,-8 -43.52,-23c0,-15 19.78,-29 43.52,-31zm-45.5,20c-6.92,-41 68.25,-61 83.09,-16c-8.9,-6 -22.75,-8 -37.59,-7c-20.77,2 -37.59,11 -45.5,23zm45.5,-3c8.9,-1 16.82,3 16.82,9c0,6 -7.91,11 -16.82,12c-8.9,1 -16.82,-3 -16.82,-9c0,-6 7.91,-11 16.82,-12zm356.11,435c0,0 -9.89,-27 -8.9,-56c0.99,-38 27.7,-79 68.25,-72c22.75,4 41.55,23 44.51,54l-9.89,7c-4.95,-30 -23.74,-41 -38.58,-35c-21.76,9 -31.65,48 -16.82,69l-38.58,33zm-1355.19,-1262c0,0 5.94,37 16.82,17c19.78,-40 33.63,-87 37.59,-150c0,0 0.99,-15 -10.88,-6c-4.95,6 -9.89,13 -14.84,19c0,43 -11.87,82 -28.69,120zm-342.26,-201c121.67,28 244.33,56 366,84c0,37 -6.92,72 -23.74,105c-121.67,-25 -242.35,-51 -364.02,-76c11.87,-38 19.78,-75 20.77,-113l0.99,0zm-44.51,103c-0.99,10 12.86,18 14.84,9c12.86,-36 22.75,-74 21.76,-116c0,-9 -14.84,-13 -18.79,-5c1.98,38 -4.95,75 -18.79,112l0.99,0zm-70.23,-15c-65.29,-8 -70.23,-130 30.66,-112c17.81,4 35.61,9 54.41,13c2.97,38 -2.97,74 -16.82,109c-22.75,-3 -45.5,-7 -68.25,-10zm1510.5,398c6.92,22 31.65,74 101.89,93l0,0c95.95,24 121.67,60 157.28,122l-16.82,-41c-8.9,-17 -20.77,-32 -37.59,-44c-63.31,-39 -126.62,-78 -189.93,-118l-14.84,-13l0,1zm0,281c0,0 -12.86,25 11.87,75c24.73,51 93.97,113 93.97,113c0,0 76.17,68 118.7,-44c0,0 29.68,-5 24.73,35c0,0 -42.54,99 33.63,104c0,0 95.95,55 128.6,65c0,0 36.6,-19 55.39,-15c0,0 -83.09,-81 -147.39,-210c-66.28,-71 -139.48,-172 -165.2,-264c0,0 -18.79,-13 -76.17,-32c0,0 35.61,41 9.89,69c-28.69,35 -72.21,69 -87.05,105l-0.99,-1zm45.5,-790c-9.89,7 -38.58,29 -33.63,44c4.95,14 64.3,87 136.51,160c50.45,52 107.82,105 154.31,137l1.98,1c0,0 42.54,46 80.12,52l1.98,1c0.99,0 352.15,152 398.64,188c2.97,1 13.85,6 20.77,2l17.81,-13c0.99,-2 5.94,-7 2.97,-11l-0.99,-1c0,0 -54.41,-102 -74.19,-121c-5.94,-5 -60.34,-47 -97.93,-74c-7.91,-6 -17.81,-17 -30.66,-32c-55.39,-65 -183,-211 -549,-329l-26.71,-4l-1.98,0zm-291.81,233l157.28,0c0,0 142.44,-1 96.94,106c0,0 -56.38,30 -144.42,35l-5.94,-6l0,0l0,0c-11.87,-9 -140.47,-105 -107.82,-128l5.94,-4l-0.99,-2l-0.99,-1zm473.82,324c0,0 46.49,-47 85.07,-70l-109.8,10l24.73,60zm11.87,9c0,0 13.85,25 26.71,35l54.41,-105l-81.11,70zm31.65,44l57.37,-107l62.32,22l-119.69,85zm58.36,55l5.94,-89l-56.38,41l51.44,47l-0.99,1zm18.79,-96l54.41,-39l-56.38,130l2.97,-91l-0.99,0zm66.28,-32l109.8,43l-159.26,71l49.46,-114zm377.87,484c24.73,-30 127.61,-159 128.6,-232c0,0 46.49,71 28.69,144c0,0 -33.63,104 -49.46,144l-7.91,3c-2.97,1 -5.94,2 -8.9,2c-29.68,2 -70.23,-41 -90.02,-61l-0.99,-1l0,1zm-214.65,-210l24.73,29l211.69,-38l-235.43,10l-0.99,-1zm78.15,-171l242.35,131l-60.34,15l-186.96,5l4.95,-151zm-76.17,155l61.33,-163l-10.88,160l-50.45,3zm260.16,9c0,0 -2.97,139 -50.45,203c0,0 108.81,-112 119.69,-225l-38.58,13l-31.65,9l0.99,0zm-226.53,45c0,0 153.32,-23 205.75,-39c0,0 0.99,119 -39.57,184l-166.18,-145zm-127.61,-129l118.7,-105l22.75,8l-62.32,181l-78.15,-84l-0.99,0zm-280.93,516l12.86,55c-5.94,-2 -11.87,-5 -15.83,-11c-1.98,-3 -3.96,-8 -3.96,-12l0,-1l0,-1c-0.99,-7 -0.99,-19 2.97,-25l3.96,-4l0,-1zm-2218.76,1349l11.87,-17c0,0 8.9,16 29.68,21l-0.99,26c-24.73,-4 -33.63,-21 -39.57,-30l-0.99,0zm104.85,15l0,0l0,0l0,0zm2113.91,-242l-145.41,-394c-6.92,-41 32.64,-64 84.08,-80c13.85,-4 17.81,-2 23.74,13l148.38,398l0,0c-34.62,15 -86.06,30 -109.8,63l-0.99,0zm74.19,249l-74.19,-190c-24.73,-70 66.28,-94 112.77,-114c9.89,-2 14.84,6 17.81,16c6.92,18 13.85,35 21.76,53c13.85,-3 27.7,-6 41.55,-10c23.74,-3 44.51,11 58.36,49c19.78,53 39.57,105 60.34,158c14.84,34 41.55,46 70.23,66c28.69,27 59.35,154 0,214c-33.63,18 -62.32,36 -88.04,57c-46.49,-2 -86.06,-19 -119.69,-49c2.97,0 5.94,-1 7.91,-3l0,0l0,0c39.57,-25 78.15,-50 117.71,-75l0.99,0l0.99,-1c6.92,-6 7.91,-16 3.96,-24l0,0l0,0c-3.96,-8 -6.92,-16 -10.88,-24c5.94,-53 -11.87,-98 -50.45,-135c-15.83,-27 -40.56,-59 -74.19,-62c-40.56,-2 -73.2,14 -91.99,51l0,0l0,0c-2.97,8 -4.95,16 -4.95,24l0,-1zm-234.44,-116l78.15,0l32.64,88c0,0 8.9,30 5.94,48c0,0 -30.66,6 -24.73,46l-49.46,137c0,0 -22.75,55 -66.28,50l-44.51,-8l0,4l-3.96,2c-1.98,1 -3.96,3 -5.94,5l-10.88,60c0.99,6 2.97,12 3.96,17c0.99,1 0.99,3 1.98,4l12.86,2l0,0c13.85,197 90.02,376 255.21,500c33.63,22 67.27,39 100.9,53l-9.89,49c-18.79,64 -75.18,49 -75.18,49c-229.49,-39 -294.78,-344 -323.47,-548c0,-11 -0.99,-23 -0.99,-34c14.84,16 46.49,13 46.49,13c23.74,9 -14.84,-84 -14.84,-84c-22.75,-72 15.83,-93 15.83,-93c0.99,-18 11.87,-40 19.78,-54c2.97,-4 5.94,-9 8.9,-14l0,0l0,0c14.84,-28 19.78,-67 0.99,-119c0,0 78.15,-90 38.58,-165c0,0 -2.97,-25 0.99,-50c29.68,-66 64.3,-129 102.88,-191l-29.68,-81c-42.54,57 -81.11,115 -114.75,175l0,0c0,0 -43.52,6 -55.39,54c0,0 -21.76,-1 -26.71,12c0,0 -16.82,22 -0.99,49l19.78,17c0,0 -37.59,30 -34.62,93c-26.71,83 -45.5,169 -53.42,259c-10.88,2 -29.68,6 -36.6,18c0,0 -13.85,20 2.97,39l22.75,22c0,0 -7.91,33 6.92,46l0,0c0.99,50 3.96,101 10.88,154c82.1,433 310.61,632 611.32,712c261.15,44 505.48,-37 732.99,-239c-13.85,11 -28.69,21 -42.54,31l-206.74,-245c38.58,-34 75.18,-72 109.8,-115c46.49,-64 84.08,-133 111.78,-206l0,0l236.42,255c-31.65,56 -68.25,112 -111.78,169c152.34,-154 233.45,-330 271.04,-527c38.58,-207 40.56,-412 -43.52,-608c-173.11,-403 -611.32,-545 -918.96,-389c12.86,-5 24.73,-9 37.59,-13c6.92,2 15.83,4 26.71,6c103.87,18 72.21,94 72.21,94l0,0c-47.48,-5 -97.93,-4 -152.34,3c0.99,47 0.99,94 1.98,141c39.57,2 80.12,3 119.69,5c57.37,4 107.82,23 154.31,56c6.92,5 13.85,11 21.76,18c2.97,7 3.96,16 -2.97,25c-3.96,6 -23.74,29 -17.81,39c12.86,-10 28.69,-13 43.52,-7c22.75,10 32.64,39 21.76,65c-0.99,3 -2.97,6 -4.95,9l4.95,5c0,0 4.95,3 8.9,-3l26.71,-24c0,0 8.9,-10 20.77,-5l0,0c3.96,5 7.91,9 10.88,14c64.3,85 95.95,229 91.01,373c-0.99,20 -2.97,40 -6.92,62c-10.88,10 -22.75,8 -22.75,8c0,0 -5.94,-2 -29.68,-3c-13.85,-1 -15.83,8 -15.83,16c14.84,10 24.73,27 24.73,47c0,30 -22.75,55 -50.45,55c-1.98,0 -2.97,0 -4.95,0c0,15 25.72,22 25.72,22c15.83,7 20.77,20 23.74,29c-17.81,44 -38.58,85 -60.34,118c-57.37,88 -131.56,158 -220.59,211c-6.92,4 -16.82,8 -28.69,13c-27.7,2 -34.62,-44 -34.62,-44c-1.98,-10 -9.89,-11 -14.84,-11c0,2 0,3 0,5c0,28 -19.78,51 -44.51,51c-19.78,0 -35.61,-14 -41.55,-34c-7.91,3 -6.92,17 -6.92,17l0.99,35c-5.94,45 -118.7,26 -148.38,20c-65.29,-13 -125.63,-45 -183,-99c-17.81,-17 -37.59,-36 -20.77,-61l18.79,-23c6.92,-7 0.99,-13 -2.97,-17c-12.86,13 -30.66,18 -45.5,10c-19.78,-10 -26.71,-39 -13.85,-64c2.97,-6 6.92,-12 10.88,-16c-8.9,-6 -29.68,19 -29.68,19c-7.91,6 -15.83,6 -21.76,4c-3.96,-8 -8.9,-15 -11.87,-22c-25.72,-49 -40.56,-97 -44.51,-146c8.9,-3 20.77,-8 30.66,-17c0,0 13.85,-10 36.6,-25l0,0c-6.92,9 27.7,133 38.58,136c4.95,10 4.95,27 4.95,27c-0.99,7 1.98,14 4.95,17c12.86,-9 27.7,-12 40.56,-6c19.78,10 26.71,38 13.85,64c-1.98,4 -4.95,8 -6.92,12l0.99,2c8.9,16 17.81,10 17.81,10c5.94,-2 9.89,0 13.85,4c25.72,27 52.43,47 82.1,62c59.35,30 125.63,38 194.87,35c6.92,1 12.86,9 12.86,9c3.96,6 9.89,6 13.85,5c-0.99,-3 -0.99,-7 -0.99,-10c0,-28 19.78,-51 44.51,-51c19.78,0 35.61,14 41.55,35c0.99,0 0.99,0 1.98,0c9.89,1 17.81,-9 19.78,-16c1.98,-6 13.85,-14 13.85,-14c109.8,-60 191.9,-149 244.33,-267c5.94,-10 12.86,-11 12.86,-11c7.91,-6 9.89,-17 9.89,-20c-20.77,-7 -35.61,-28 -35.61,-52c0,-30 21.76,-55 49.46,-55c4.95,0 9.89,1 14.84,2l0,0c4.95,-5 7.91,-16 2.97,-22c-4.95,-6 -6.92,-16 -6.92,-16c15.83,-63 -15.83,-279 -62.32,-344c-6.92,-9 -9.89,-23 -8.9,-29c0.99,-5 -6.92,-15 -10.88,-20c-12.86,15 -32.64,21 -49.46,14c-22.75,-9 -32.64,-38 -21.76,-65c1.98,-5 4.95,-10 7.91,-14c-4.95,-6 -12.86,-6 -16.82,-5c-4.95,2 -14.84,-5 -14.84,-5c-68.25,-50 -162.23,-64 -275,-50c-51.44,11 -88.04,42 -116.72,84c17.81,9 29.68,29 36.6,49c19.78,53 39.57,105 60.34,157c13.85,32 40.56,44 67.27,62l0,0l0,0c12.86,12 21.76,35 26.71,51c6.92,25 10.88,52 9.89,78c-0.99,35 -10.88,71 -36.6,97l-0.99,1l-0.99,1c-30.66,16 -60.34,34 -87.05,56l-1.98,2l-2.97,0c-47.48,-2 -89.03,-19 -124.64,-51l-12.86,-11l0,0l-1.98,0l0,0c10.88,24 12.86,48 -3.96,72c-26.71,38 -55.39,75 -87.05,107c-27.7,24 -49.46,20 -66.28,-19c-11.87,-38 -21.76,-76 -23.74,-114c49.46,-32 115.74,-74 158.27,-94c2.97,3 4.95,7 7.91,10c7.91,10 15.83,20 22.75,31c4.95,5 10.88,4 16.82,1c39.57,-25 78.15,-50 117.71,-75c3.96,-3 3.96,-8 1.98,-14c-3.96,-9 -7.91,-18 -11.87,-27c6.92,-49 -8.9,-93 -48.47,-131c-19.78,-35 -42.54,-57 -67.27,-58c-38.58,-2 -66.28,14 -83.09,46c-7.91,21 -4.95,45 3.96,70c-0.99,11 -0.99,22 -1.98,32c-3.96,5 -7.91,9 -11.87,14c-8.9,13 6.92,32 17.81,39c2.97,8 6.92,15 10.88,22c-8.9,-13 -17.81,-25 -23.74,-31c0,0 -10.88,-9 -10.88,-23c0,0 -4.95,-5 -12.86,5l-120.68,112c0,0 -10.88,10 -14.84,2c0,0 -3.96,-6 5.94,-16l80.12,-136c0,0 -3.96,-53 28.69,-66l25.72,-10l-47.48,-122l-26.71,56c-8.9,-26 -31.65,-124 -58.36,-126l-66.28,0c-25.72,21 -27.7,50 -25.72,83l-0.99,-1zm329.4,118c25.72,-15 59.35,-10 77.16,8c18.79,20 30.66,47 30.66,77c0,61 -43.52,117 -106.83,111c-39.57,-6 -59.35,-37 -67.27,-72c0.99,2 1.98,5 2.97,7c18.79,62 88.04,79 134.53,31c18.79,-20 30.66,-47 30.66,-76c0,-28 -11.87,-54 -30.66,-73c-15.83,-16 -44.51,-22 -69.24,-13c27.7,9 46.49,20 56.38,34c-13.85,28 -12.86,55 -9.89,82c-23.74,13 -44.51,28 -58.36,47c-14.84,-3 -26.71,-11 -37.59,-22c87.05,23 125.63,-108 33.63,-131l6.92,-6l6.92,-6l0.99,0l-0.99,2zm-17.81,18c27.7,0 50.45,27 50.45,61c0,13 -7.91,30 -16.82,40c-21.76,24 -52.43,28 -72.21,0c-7.91,-11 -11.87,-25 -11.87,-40c0,-34 22.75,-61 50.45,-61zm0,20c18.79,0 33.63,18 33.63,41c0,9 -4.95,20 -10.88,27c-14.84,16 -35.61,19 -48.47,0c-4.95,-7 -7.91,-16 -7.91,-27c0,-23 14.84,-41 33.63,-41zm0,-9c22.75,0 41.55,22 41.55,50c0,11 -5.94,24 -13.85,32c-17.81,20 -42.54,23 -59.35,0c-5.94,-9 -9.89,-20 -9.89,-32c0,-28 18.79,-50 41.55,-50zm80.12,8l12.86,10c14.84,55 -7.91,100 -57.37,125l-24.73,-6c13.85,-20 35.61,-34 57.37,-46l1.98,-1l0,-3c-2.97,-28 -2.97,-54 9.89,-80l0,1zm466.9,-322c19.78,8 28.69,34 18.79,57c-9.89,23 -33.63,35 -53.42,27c-19.78,-8 -28.69,-34 -18.79,-57c9.89,-23 33.63,-35 53.42,-27zm-5.94,15c12.86,5 17.81,22 11.87,37c-5.94,15 -21.76,23 -33.63,17c-12.86,-5 -17.81,-22 -11.87,-37c5.94,-15 21.76,-23 33.63,-17zm-55.39,151c12.86,-20 33.63,-30 51.44,-24c58.36,18 74.19,243 72.21,299c-12.86,66 -58.36,48 -101.89,31c-83.09,-32 -80.12,-40 -92.98,-128c-2.97,-24 -1.98,-45 3.96,-61c19.78,-41 41.55,-80 65.29,-117l1.98,0zm-115.74,62c0,0 -5.94,15 2.97,23c0,0 9.89,7 20.77,-2c0,0 24.73,-20 30.66,-45c0,0 2.97,-17 -5.94,-23c0,0 -9.89,-6 -16.82,3l-31.65,44zm-195.86,-185c-3.96,-33 10.88,-54 50.45,-62c61.33,-9 122.66,1 183,31c38.58,21 56.38,47 33.63,82c-25.72,29 -49.46,61 -77.16,88c-31.65,31 -58.36,45 -102.88,24c-45.5,-31 -77.16,-111 -87.05,-163zm243.34,458c3.96,-18 20.77,-14 32.64,-11c14.84,3 31.65,8 28.69,26c-1.98,16 -19.78,17 -34.62,13c-15.83,-3 -29.68,-7 -26.71,-28zm-120.68,323c0,0 -2.97,58 54.41,47c42.54,-17 81.11,-56 113.76,-94c34.62,-41 66.28,-83 89.03,-130c9.89,-32 2.97,-55 -24.73,-68c-32.64,-7 -66.28,-11 -99.91,-10c-39.57,-6 -62.32,13 -80.12,43c-27.7,24 -47.48,50 -48.47,84c-0.99,42 -1.98,85 -2.97,127l-0.99,1zm-48.47,-131l0,0c9.89,-1 16.82,6 16.82,16l0,47c0,10 -7.91,18 -16.82,20l0,0c-9.89,1 -16.82,-6 -16.82,-16l0,-47c0,-10 7.91,-18 16.82,-20zm-291.81,75c-19.78,27 -19.78,54 4.95,79c63.31,48 137.5,77 217.62,76c29.68,-6 46.49,-28 40.56,-76c-3.96,-43 -10.88,-83 -22.75,-122c-6.92,-16 -16.82,-28 -32.64,-35c-14.84,-5 -28.69,-10 -43.52,-15c-19.78,-5 -37.59,-2 -54.41,9c-36.6,28 -82.1,54 -108.81,84l-0.99,0zm85.07,-139l0,0c7.91,6 7.91,16 1.98,23l-31.65,33c-6.92,7 -17.81,8 -25.72,2l0,0c-7.91,-6 -7.91,-16 -1.98,-23l31.65,-33c6.92,-7 17.81,-8 25.72,-2zm840.81,84c0,0 -35.61,-96 37.59,-136c60.34,-33 222.57,-82 276.97,-99c-11.87,163 -48.47,311 -120.68,456l-193.88,-221zm317.53,-302l-331.38,117l0,0c21.76,-128 17.81,-258 -11.87,-375l0,0l280.93,-119c34.62,78 56.38,162 62.32,249c0.99,44 0.99,87 0,128zm-368.97,200l-0.99,3c-4.95,9 -14.84,12 -22.75,8c-7.91,-4 -9.89,-15 -4.95,-24c4.95,-9 14.84,-12 22.75,-8c6.92,4 9.89,13 6.92,21l-0.99,0zm-123.65,744c0,0 26.71,-48 -9.89,-95c-30.66,-41 -119.69,-147 -145.41,-178c-34.62,27 -70.23,50 -106.83,69l-65.29,217c0,0 -25.72,94 44.51,111c88.04,-21 182.01,-62 281.92,-124l0.99,0zm-77.16,-826c15.83,0 27.7,14 27.7,31c0,17 -12.86,31 -27.7,31c-15.83,0 -27.7,-14 -27.7,-31c0,-17 12.86,-31 27.7,-31zm-747.83,241c17.81,9 23.74,35 12.86,57c-10.88,23 -34.62,34 -52.43,26c-17.81,-9 -23.74,-35 -12.86,-57c10.88,-23 34.62,-34 52.43,-26zm-7.91,17c10.88,5 13.85,20 6.92,33c-5.94,13 -19.78,20 -30.66,15c-10.88,-5 -13.85,-20 -6.92,-33c5.94,-13 19.78,-20 30.66,-15zm396.67,124c21.76,0 40.56,21 40.56,46c0,25 -17.81,46 -40.56,46c-21.76,0 -40.56,-21 -40.56,-46c0,-25 17.81,-46 40.56,-46zm0,18c13.85,0 24.73,13 24.73,28c0,16 -10.88,28 -24.73,28c-13.85,0 -24.73,-13 -24.73,-28c0,-16 10.88,-28 24.73,-28zm359.08,-417c23.74,0 43.52,21 43.52,48c0,26 -19.78,48 -43.52,48c-23.74,0 -43.52,-21 -43.52,-48c0,-26 19.78,-48 43.52,-48zm-941.71,179c6.92,1 11.87,8 10.88,16c-0.99,8 -7.91,13 -14.84,12c-6.92,-1 -11.87,-8 -10.88,-16c0.99,-8 7.91,-13 14.84,-12zm541.09,397c7.91,4 9.89,15 4.95,24c-4.95,9 -14.84,12 -22.75,8c-7.91,-4 -9.89,-15 -4.95,-24c4.95,-9 14.84,-12 22.75,-8zm-405.57,-129c6.92,1 11.87,9 10.88,18c-0.99,9 -7.91,15 -14.84,14c-6.92,-1 -11.87,-9 -10.88,-18c0.99,-9 7.91,-15 14.84,-14zm42.54,71c6.92,1 11.87,9 10.88,18c-0.99,9 -7.91,15 -14.84,14c-6.92,-1 -11.87,-9 -10.88,-18c0.99,-9 7.91,-15 14.84,-14zm79.14,0c6.92,1 11.87,9 10.88,18c-0.99,9 -7.91,15 -14.84,14c-6.92,-1 -11.87,-9 -10.88,-18c0.99,-9 7.91,-15 14.84,-14zm43.52,97c7.91,1 12.86,10 11.87,20c-0.99,10 -8.9,17 -16.82,15c-7.91,-1 -12.86,-10 -11.87,-20c0.99,-10 8.9,-17 16.82,-15zm84.08,-24c7.91,1 12.86,10 11.87,20c-0.99,10 -8.9,17 -16.82,15c-7.91,-1 -12.86,-10 -11.87,-20c0.99,-10 8.9,-17 16.82,-15zm70.23,35c7.91,1 12.86,10 11.87,20c-0.99,10 -8.9,17 -16.82,15c-7.91,-1 -12.86,-10 -11.87,-20c0.99,-10 8.9,-17 16.82,-15zm-390.73,-207c6.92,1 11.87,9 10.88,18c-0.99,9 -7.91,15 -14.84,14c-6.92,-1 -11.87,-9 -10.88,-18c0.99,-9 7.91,-15 14.84,-14zm44.51,-33c-7.91,-5 -7.91,-17 -1.98,-28c6.92,-11 17.81,-16 25.72,-11c7.91,5 7.91,17 1.98,28c-6.92,11 -17.81,16 -25.72,11zm-40.56,-78c6.92,1 11.87,9 10.88,18c-0.99,9 -7.91,15 -14.84,14c-6.92,-1 -11.87,-9 -10.88,-18c0.99,-9 7.91,-15 14.84,-14zm-62.32,-45c6.92,1 11.87,9 10.88,18c-0.99,9 -7.91,15 -14.84,14c-6.92,-1 -11.87,-9 -10.88,-18c0.99,-9 7.91,-15 14.84,-14zm459.97,711c1.98,0 117.71,-21 134.53,-106l45.5,-183c-91.01,27 -186.96,31 -280.93,7l-28.69,90c0,0 -19.78,71 30.66,110l99.91,82l0,0l-0.99,0zm370.95,-1898c64.3,5 125.63,19 184.98,41c10.88,11 23.74,29 32.64,38c11.87,13 -7.91,68 -7.91,68l-36.6,128l0,0c-62.32,-63 -139.48,-109 -234.44,-132l1.98,-52c6.92,-45 36.6,-74 58.36,-91l0.99,0zm359.08,134c78.15,57 146.4,130 198.83,213l-2.97,-1c0,57 -46.49,78 -46.49,78l-199.82,71l0,0c-17.81,-49 -39.57,-94 -67.27,-136l40.56,-186c12.86,-42 61.33,-40 77.16,-39zm-441.18,91c6.92,3 8.9,13 4.95,23c-3.96,10 -12.86,16 -19.78,13c-6.92,-3 -8.9,-13 -4.95,-23c3.96,-10 12.86,-16 19.78,-13zm87.05,-15c6.92,3 8.9,13 4.95,23c-3.96,10 -12.86,16 -19.78,13c-6.92,-3 -8.9,-13 -4.95,-23c3.96,-10 12.86,-16 19.78,-13zm307.64,390c7.91,4 9.89,15 4.95,24c-4.95,9 -14.84,12 -22.75,8c-7.91,-4 -9.89,-15 -4.95,-24c4.95,-9 14.84,-12 22.75,-8zm-257.19,-329c6.92,3 8.9,13 4.95,23c-3.96,10 -12.86,16 -19.78,13c-6.92,-3 -8.9,-13 -4.95,-23c3.96,-10 12.86,-16 19.78,-13zm189.93,257c7.91,4 9.89,15 4.95,24c-4.95,9 -14.84,12 -22.75,8c-7.91,-4 -9.89,-15 -4.95,-24c4.95,-9 14.84,-12 22.75,-8zm-14.84,-90c7.91,4 9.89,15 4.95,24c-4.95,9 -14.84,12 -22.75,8c-7.91,-4 -9.89,-15 -4.95,-24c4.95,-9 14.84,-12 22.75,-8zm-79.14,-40c5.94,4 5.94,15 0,24c-5.94,9 -15.83,13 -21.76,9c-5.94,-4 -5.94,-15 0,-24c5.94,-9 15.83,-13 21.76,-9zm-69.24,-36c6.92,5 7.91,17 0.99,28c-6.92,11 -17.81,16 -25.72,11c-6.92,-5 -7.91,-17 -0.99,-28c6.92,-11 17.81,-16 25.72,-11zm63.31,-77c6.92,3 8.9,13 4.95,23c-3.96,10 -12.86,16 -19.78,13c-6.92,-3 -8.9,-13 -4.95,-23c3.96,-10 12.86,-16 19.78,-13zm-13.85,969c7.91,4 9.89,15 4.95,24c-4.95,9 -14.84,12 -22.75,8c-7.91,-4 -9.89,-15 -4.95,-24c4.95,-9 14.84,-12 22.75,-8zm-367.98,236c-8.9,0 -15.83,-10 -15.83,-23c0,-13 6.92,-23 15.83,-23c8.9,0 15.83,10 15.83,23c0,13 -6.92,23 -15.83,23zm25.72,63c7.91,4 9.89,15 4.95,24c-4.95,9 -14.84,12 -22.75,8c-7.91,-4 -9.89,-15 -4.95,-24c4.95,-9 14.84,-12 22.75,-8zm71.22,-68c7.91,4 9.89,15 4.95,24c-4.95,9 -14.84,12 -22.75,8c-7.91,-4 -9.89,-15 -4.95,-24c4.95,-9 14.84,-12 22.75,-8zm82.1,-18c7.91,4 9.89,15 4.95,24c-4.95,9 -14.84,12 -22.75,8c-7.91,-4 -9.89,-15 -4.95,-24c4.95,-9 14.84,-12 22.75,-8zm51.44,-96c7.91,4 9.89,15 4.95,24c-4.95,9 -14.84,12 -22.75,8c-7.91,-4 -9.89,-15 -4.95,-24c4.95,-9 14.84,-12 22.75,-8zm103.87,-8c7.91,4 9.89,15 4.95,24c-4.95,9 -14.84,12 -22.75,8c-7.91,-4 -9.89,-15 -4.95,-24c4.95,-9 14.84,-12 22.75,-8zm103.87,-177c7.91,4 9.89,15 4.95,24c-4.95,9 -14.84,12 -22.75,8c-7.91,-4 -9.89,-15 -4.95,-24c4.95,-9 14.84,-12 22.75,-8zm0.99,-110c7.91,4 9.89,15 4.95,24c-4.95,9 -14.84,12 -22.75,8c-7.91,-4 -9.89,-15 -4.95,-24c4.95,-9 14.84,-12 22.75,-8zm14.84,-78c-1.98,9 -12.86,14 -25.72,11c-11.87,-3 -20.77,-12 -18.79,-20c1.98,-9 12.86,-14 25.72,-11c11.87,3 20.77,12 18.79,20zm57.37,-101c7.91,4 9.89,15 4.95,24c-4.95,9 -14.84,12 -22.75,8c-7.91,-4 -9.89,-15 -4.95,-24c4.95,-9 14.84,-12 22.75,-8zm32.64,-96c7.91,4 9.89,15 4.95,24c-4.95,9 -14.84,12 -22.75,8c-7.91,-4 -9.89,-15 -4.95,-24c4.95,-9 14.84,-12 22.75,-8zm-49.46,-89c7.91,4 9.89,15 4.95,24c-4.95,9 -14.84,12 -22.75,8c-7.91,-4 -9.89,-15 -4.95,-24c4.95,-9 14.84,-12 22.75,-8zm-1393.77,864c11.87,25 -0.99,103 42.54,87c-32.64,1 -8.9,-76 -42.54,-87zm1544.13,356c58.36,4 159.26,102 201.8,13c-47.48,56 -132.55,-59 -201.8,-13zm-214.65,344c-2.97,7 72.21,7 85.07,5c201.8,-9 315.55,-101 467.89,-228c2.97,-3 4.95,-6 7.91,-9c-3.96,0 -7.91,1 -11.87,1c-150.36,118 -265.1,214 -459.97,224c-10.88,1 -90.02,-1 -89.03,7zm-1248.36,-543c15.83,31 0,128 53.42,108c-40.56,2 -11.87,-94 -53.42,-108zm116.72,160c18.79,29 12.86,128 64.3,102c-39.57,6 -21.76,-93 -64.3,-102zm151.35,152c23.74,25 35.61,123 82.1,88c-37.59,14 -38.58,-87 -82.1,-88zm171.13,89c28.69,31 43.52,150 99.91,107c-46.49,17 -46.49,-106 -99.91,-107zm198.83,63c40.56,29 71.22,146 142.44,100c-60.34,20 -71.22,-103 -142.44,-100zm184.98,-5c42.54,30 74.19,153 148.38,105c-62.32,20 -74.19,-107 -148.38,-105zm275.98,-33c54.41,20 125.63,142 190.91,68c-61.33,41 -111.78,-93 -190.91,-68zm182.01,-106c75.18,20 203.77,154 260.16,70c-62.32,47 -170.14,-100 -260.16,-70zm305.66,-2193c8.9,-37 93.97,-99 31.65,-129c37.59,32 -58.36,83 -31.65,129zm-348.2,-157c-4.95,-26 31.65,-92 -17.81,-92c33.63,10 -12.86,71 17.81,92zm176.08,63c0.99,-27 51.44,-82 3.96,-94c30.66,17 -28.69,66 -3.96,94zm285.88,2222c-4.95,1 -16.82,11 11.87,2c0,0 79.14,-25 101.89,-35c226.53,-97 208.72,-237 337.31,-404c3.96,-5 0,-9 -6.92,-2c-86.06,96 -97.93,172 -153.32,241c-46.49,59 -102.88,109 -187.95,152c-34.62,15 -70.23,31 -104.85,46l1.98,0zm344.24,-501c0,0 -3.96,15 8.9,3c103.87,-94 154.31,-104 184.98,-193c39.57,-115 15.83,-255 59.35,-355c1.98,-4 0,-10 -3.96,-5c-66.28,144 -22.75,338 -127.61,438c-40.56,37 -81.11,74 -121.67,112zm139.48,-606c0,0 -4.95,14 0,16c0,0 1.98,3 6.92,-9c25.72,-48 88.04,-56 90.02,-172c3.96,-133 -68.25,-245 -67.27,-346c0,0 -0.99,-23 -3.96,-6c0,0 -0.99,91 23.74,154c0,0 38.58,112 32.64,150c1.98,50 -7.91,92 -28.69,127c-17.81,29 -36.6,58 -54.41,87l0.99,-1zm-89.03,-556c0,0 2.97,15 11.87,-5c0,0 14.84,-32 18.79,-49c19.78,-75 -22.75,-158 -71.22,-213c-41.55,-48 -78.15,-93 -116.72,-143c25.72,64 85.07,117 127.61,175c97.93,138 16.82,176 29.68,235zm-423.37,1421c66.28,-9 212.68,68 231.47,-30c-35.61,67 -168.16,-31 -231.47,30zm126.62,-233c55.39,-19 184.98,34 191.9,-65c-23.74,70 -144.42,-4 -191.9,65zm117.71,-260c62.32,-29 222.57,15 216.63,-102c-17.81,86 -170.14,15 -216.63,102zm70.23,-283c36.6,-22 170.14,-13 126.62,-78c14.84,50 -121.67,25 -126.62,78zm-6.92,-262c49.46,-49 214.65,-60 171.13,-169c10.88,87 -156.29,71 -171.13,169zm-32.64,-272c24.73,-29 127.61,-46 85.07,-101c18.79,46 -89.03,48 -85.07,101zm-205.75,-424c10.88,-29 85.07,-70 38.58,-100c26.71,30 -55.39,61 -38.58,100z" fill="#000000" id="svg_2"/>
  </g>
 </g>
</svg>